<svg xmlns="http://www.w3.org/2000/svg" viewBox="0 0 1200 800">
  <rect width="1200" height="800" fill="#f3ede2"/>
  <rect x="70" y="70" width="1060" height="660" rx="38" fill="#b0413e"/>
  <rect x="120" y="120" width="960" height="560" rx="24" fill="#f7d98a"/>
  <g stroke="#0f3d3e" stroke-width="12" fill="none">
    <path d="M240 200c80 0 80 90 160 90s80-90 160-90 80 90 160 90 80-90 160-90 80 90 160 90"/>
    <path d="M240 600c80 0 80-90 160-90s80 90 160 90 80-90 160-90 80 90 160 90 80-90 160-90"/>
    <circle cx="600" cy="400" r="120"/>
    <circle cx="600" cy="400" r="54"/>
    <path d="M480 400h240M600 280v240"/>
    <path d="M332 400h136M732 400h136M600 132v136M600 532v136"/>
  </g>
  <text x="160" y="170" fill="#0f3d3e" font-family="Montserrat, Arial, sans-serif" font-size="54" font-weight="700">Craft Heritage</text>
</svg>
