<svg xmlns="http://www.w3.org/2000/svg" viewBox="0 0 1200 800">
  <rect width="1200" height="800" fill="#e8f1f8"/>
  <circle cx="940" cy="140" r="68" fill="#f4cf68"/>
  <rect y="640" width="1200" height="160" fill="#10384f"/>
  <rect x="160" y="360" width="120" height="280" fill="#285b74"/>
  <rect x="310" y="290" width="150" height="350" fill="#1b4860"/>
  <rect x="500" y="220" width="180" height="420" fill="#0f3d53"/>
  <rect x="720" y="310" width="120" height="330" fill="#285b74"/>
  <rect x="870" y="250" width="180" height="390" fill="#1b4860"/>
  <path d="M590 220v-100" stroke="#d4af37" stroke-width="18" stroke-linecap="round"/>
  <path d="M590 120c0-44 24-74 54-74" stroke="#d4af37" stroke-width="18" fill="none" stroke-linecap="round"/>
  <g fill="#dbeffd">
    <rect x="185" y="390" width="20" height="20"/><rect x="220" y="390" width="20" height="20"/>
    <rect x="185" y="430" width="20" height="20"/><rect x="220" y="430" width="20" height="20"/>
    <rect x="350" y="330" width="22" height="22"/><rect x="390" y="330" width="22" height="22"/>
    <rect x="350" y="375" width="22" height="22"/><rect x="390" y="375" width="22" height="22"/>
    <rect x="550" y="260" width="26" height="26"/><rect x="605" y="260" width="26" height="26"/>
    <rect x="550" y="310" width="26" height="26"/><rect x="605" y="310" width="26" height="26"/>
  </g>
</svg>
